<svg width="39" height="39" viewBox="0 0 39 39" fill="none" xmlns="http://www.w3.org/2000/svg">
<g filter="url(#filter0_d_1_999)">
<ellipse cx="19.8785" cy="16.4007" rx="16.1215" ry="16.4007" fill="#323232"/>
</g>
<path d="M17.7247 20.1825C16.7648 20.1825 16.0633 19.2904 15.3705 18.2964C13.9829 16.3081 13.1854 13.0292 14.4403 10.8687C15.0998 9.73006 16.2965 9.01109 17.5633 8.99238C17.5758 8.99199 17.5887 8.99199 17.6019 8.99199C18.1459 8.99199 18.6599 9.19422 19.1134 9.37265C19.4536 9.50665 19.7475 9.62237 19.9738 9.62237C20.1753 9.62237 20.4665 9.50837 20.8037 9.37638C21.2921 9.18515 21.9 8.94715 22.5366 8.94715C22.6185 8.94715 22.6996 8.95109 22.7775 8.95885C23.3154 8.98173 24.6612 9.17249 25.5384 10.4465C25.5569 10.4731 25.5637 10.5066 25.5571 10.5385C25.551 10.5701 25.5316 10.5984 25.5041 10.6161L25.492 10.6235C25.2373 10.7799 23.9673 11.6428 23.9837 13.2713C24.0012 15.2765 25.6723 16.0122 25.8628 16.0895C25.8628 16.0895 25.8654 16.0907 25.8672 16.0915C25.8691 16.0922 25.8717 16.0934 25.8717 16.0934C25.9281 16.1191 25.956 16.1826 25.9364 16.2412L25.9322 16.2544C25.829 16.5829 25.523 17.4428 24.9104 18.3311C24.3245 19.1805 23.6605 20.1431 22.5783 20.1634C22.563 20.1637 22.5479 20.1638 22.5329 20.1638C22.0536 20.1638 21.7221 20.0214 21.4015 19.8837L21.3982 19.8823C21.0609 19.7376 20.712 19.588 20.1663 19.588C19.592 19.588 19.226 19.7428 18.872 19.8925C18.557 20.0257 18.2312 20.1634 17.7797 20.1813C17.761 20.1821 17.7427 20.1825 17.7247 20.1825ZM20.0061 9.04033C19.9535 9.04033 19.9006 9.03836 19.849 9.03448C19.792 9.02983 19.7453 8.98589 19.7379 8.93C19.6175 8.0273 20.074 7.13124 20.5414 6.59366C21.0917 5.95436 22.0118 5.48609 22.7787 5.45492L22.7832 5.45483C22.8446 5.45483 22.8979 5.50213 22.9046 5.56251C22.9935 6.36756 22.6994 7.26588 22.1179 7.96552C21.5656 8.62849 20.7564 9.04033 20.0061 9.04033Z" fill="white"/>
<defs>
<filter id="filter0_d_1_999" x="0.756958" y="0" width="38.243" height="38.8013" filterUnits="userSpaceOnUse" color-interpolation-filters="sRGB">
<feFlood flood-opacity="0" result="BackgroundImageFix"/>
<feColorMatrix in="SourceAlpha" type="matrix" values="0 0 0 0 0 0 0 0 0 0 0 0 0 0 0 0 0 0 127 0" result="hardAlpha"/>
<feOffset dy="3"/>
<feGaussianBlur stdDeviation="1.5"/>
<feComposite in2="hardAlpha" operator="out"/>
<feColorMatrix type="matrix" values="0 0 0 0 0 0 0 0 0 0 0 0 0 0 0 0 0 0 0.160784 0"/>
<feBlend mode="normal" in2="BackgroundImageFix" result="effect1_dropShadow_1_999"/>
<feBlend mode="normal" in="SourceGraphic" in2="effect1_dropShadow_1_999" result="shape"/>
</filter>
</defs>
</svg>
